Coordinates
version=1
nRows=21
nColumns=22
inDegrees=yes

Units are S.I. units (second, meters, Newtons, ...)
If the header above contains a line with 'inDegrees', this indicates whether rotational values are in degrees (yes) or radians (no).

endheader
time	pelvis_tilt	pelvis_list	pelvis_rotation	pelvis_tx	pelvis_ty	pelvis_tz	hip_flexion_r	hip_adduction_r	hip_rotation_r	knee_angle_r	ankle_angle_r	subtalar_angle_r	hip_flexion_l	hip_adduction_l	hip_rotation_l	knee_angle_l	ankle_angle_l	subtalar_angle_l	lumbar_extension	lumbar_bending	lumbar_rotation
      0.01000000	      0.94406238	     -0.38400191	    -24.83019162	     -1.01859359	      0.90729689	     -0.36795024	     -2.07383453	      1.00034718	     -5.28028909	     -9.37475482	     17.66840906	     -4.22432414	      1.02289917	     -1.03868703	    -11.36873781	    -16.61450967	     16.60576755	     -1.93189502	     -4.20237812	     -2.76634064	      3.94958502
      0.02000000	      0.92791823	     -0.37693825	    -24.84818605	     -1.01855556	      0.90727988	     -0.36791628	     -2.08310568	      0.99771252	     -5.29939753	     -9.32606412	     17.65136173	     -4.22753847	      1.02926742	     -1.03782724	    -11.39380385	    -16.60160929	     16.59969382	     -1.93020828	     -4.17951266	     -2.76803983	      3.95033791
      0.03000000	      0.90693493	     -0.37398763	    -24.86835867	     -1.01853433	      0.90726090	     -0.36787719	     -2.09739490	      1.00322469	     -5.29906688	     -9.26023525	     17.63125848	     -4.22708590	      1.04258171	     -1.04438991	    -11.41358590	    -16.59476563	     16.59614717	     -1.92854132	     -4.15868762	     -2.76740831	      3.95227302
      0.04000000	      0.88390105	     -0.37473017	    -24.89242172	     -1.01851189	      0.90724180	     -0.36783659	     -2.11461106	      1.01378045	     -5.28693685	     -9.18779156	     17.60417079	     -4.22372212	      1.05790729	     -1.05548556	    -11.43452453	    -16.59283095	     16.59616933	     -1.92716867	     -4.14062142	     -2.76201964	      3.95650212
      0.05000000	      0.86028802	     -0.38065417	    -24.91660464	     -1.01850429	      0.90722549	     -0.36779226	     -2.13451600	      1.03139658	     -5.26040420	     -9.11189123	     17.56690359	     -4.21652611	      1.07428076	     -1.07432868	    -11.46265178	    -16.59400476	     16.59994969	     -1.92608253	     -4.13062958	     -2.75680703	      3.96706943
      0.06000000	      0.85111364	     -0.38220131	    -24.94522625	     -1.01850739	      0.90721993	     -0.36778330	     -2.13264356	      1.03136547	     -5.26497900	     -9.09794596	     17.56507322	     -4.21598730	      1.07931701	     -1.07539681	    -11.46132632	    -16.59454763	     16.60028894	     -1.92598399	     -4.14104534	     -2.75718682	      3.96316321
      0.07000000	      0.83227478	     -0.40094738	    -24.99517205	     -1.01846056	      0.90721977	     -0.36772488	     -2.18106092	      1.05872143	     -5.18494815	     -8.98844658	     17.49418872	     -4.19191410	      1.08395547	     -1.10424605	    -11.52839382	    -16.60745573	     16.61069869	     -1.92982861	     -4.13560320	     -2.73357971	      3.99453797
      0.08000000	      0.82222283	     -0.40501025	    -25.03043842	     -1.01841246	      0.90721369	     -0.36771019	     -2.19767058	      1.06110089	     -5.18594719	     -8.94316018	     17.48932704	     -4.18364355	      1.08384978	     -1.10818660	    -11.54907952	    -16.60635183	     16.61467879	     -1.93186872	     -4.13972840	     -2.73136284	      4.02100359
      0.09000000	      0.82212755	     -0.41439091	    -25.07763606	     -1.01836881	      0.90722358	     -0.36769435	     -2.23194157	      1.06519437	     -5.13889401	     -8.88551408	     17.46542337	     -4.16453419	      1.07678126	     -1.11379935	    -11.59292591	    -16.61876470	     16.61978589	     -1.93963592	     -4.15827812	     -2.72562211	      4.04563416
      0.10000000	      0.81421775	     -0.41714987	    -25.10766687	     -1.01833061	      0.90721737	     -0.36771488	     -2.23008419	      1.06356676	     -5.14306657	     -8.87592731	     17.46469874	     -4.16373880	      1.07938611	     -1.11184561	    -11.59108774	    -16.62095869	     16.62004659	     -1.94006130	     -4.17076054	     -2.72397232	      4.04202399
      0.11000000	      0.83030221	     -0.44219277	    -25.17717833	     -1.01828596	      0.90725618	     -0.36767990	     -2.28543834	      1.07507870	     -5.05576717	     -8.81922807	     17.42737416	     -4.13059679	      1.04616890	     -1.12790890	    -11.68013753	    -16.63577015	     16.63522212	     -1.96306868	     -4.21269409	     -2.70850407	      4.09412243
      0.12000000	      0.82379999	     -0.44432723	    -25.20463924	     -1.01824027	      0.90724839	     -0.36772404	     -2.28358694	      1.07146978	     -5.06036309	     -8.81049244	     17.42727302	     -4.13005996	      1.05029399	     -1.12365898	    -11.67697207	    -16.64092788	     16.63545531	     -1.96346050	     -4.22598405	     -2.70592902	      4.09218453
      0.13000000	      0.83370570	     -0.44966583	    -25.24003542	     -1.01821845	      0.90725815	     -0.36777335	     -2.30147199	      1.06389746	     -5.03182995	     -8.79431804	     17.41979648	     -4.12012894	      1.05821163	     -1.12044362	    -11.69723828	    -16.68850296	     16.64111246	     -1.97198185	     -4.26214830	     -2.70915779	      4.12209164
      0.14000000	      0.82772281	     -0.45264565	    -25.26819673	     -1.01816174	      0.90725087	     -0.36782756	     -2.29966380	      1.06044095	     -5.03309430	     -8.78693538	     17.41935731	     -4.11912638	      1.06059951	     -1.11639784	    -11.69893506	    -16.69331674	     16.64197443	     -1.97302796	     -4.27307247	     -2.70302164	      4.11844126
      0.15000000	      0.83424905	     -0.47479196	    -25.34002795	     -1.01814860	      0.90726642	     -0.36782256	     -2.31544453	      1.07145504	     -4.94017225	     -8.77845118	     17.40358560	     -4.09057655	      1.05300843	     -1.13938888	    -11.81981537	    -16.73276810	     16.66761917	     -2.00010483	     -4.30790100	     -2.68445312	      4.17465226
      0.16000000	      0.82838662	     -0.47697546	    -25.36213656	     -1.01809368	      0.90725960	     -0.36788824	     -2.31150321	      1.06772171	     -4.94226689	     -8.77380311	     17.40311454	     -4.09008858	      1.05569551	     -1.13510098	    -11.81827942	    -16.73724632	     16.66788338	     -2.00034947	     -4.31884546	     -2.68072095	      4.17223556
      0.17000000	      0.82474370	     -0.48407799	    -25.41928532	     -1.01807561	      0.90725307	     -0.36791544	     -2.29320325	      1.06623586	     -4.88708837	     -8.79873920	     17.40054123	     -4.07061230	      1.05738509	     -1.14202746	    -11.89593526	    -16.75667556	     16.67739576	     -2.00760755	     -4.33514996	     -2.67252682	      4.21533466
      0.18000000	      0.81775635	     -0.48612589	    -25.43549625	     -1.01802015	      0.90724410	     -0.36799004	     -2.28796888	      1.06362645	     -4.88874603	     -8.79484466	     17.40057554	     -4.07022133	      1.05911447	     -1.13860236	    -11.89676528	    -16.75617758	     16.67751455	     -2.00736359	     -4.34466104	     -2.66915217	      4.21196877
      0.19000000	      0.80825129	     -0.49075794	    -25.47122964	     -1.01796274	      0.90723451	     -0.36803585	     -2.26367876	      1.06279417	     -4.86448877	     -8.82476266	     17.39846738	     -4.06290502	      1.04656037	     -1.14020575	    -11.94283447	    -16.73372343	     16.67813129	     -2.00342465	     -4.34791062	     -2.65864753	      4.21081917
      0.20000000	      0.80112917	     -0.49231015	    -25.48516600	     -1.01790153	      0.90722506	     -0.36811503	     -2.25780062	      1.05942240	     -4.86555987	     -8.82144591	     17.39902891	     -4.06222839	      1.04703004	     -1.13685480	    -11.94669712	    -16.73129293	     16.67806802	     -2.00251452	     -4.35561212	     -2.65506737	      4.21052150
      0.21000000	      0.79223315	     -0.48567328	    -25.54934840	     -1.01784164	      0.90721049	     -0.36811435	     -2.21785028	      1.04548845	     -4.81454158	     -8.87075172	     17.40830010	     -4.04144197	      1.02455022	     -1.12874732	    -12.04590898	    -16.69089028	     16.66936208	     -1.97268589	     -4.34621688	     -2.66050655	      4.26533824
